<mxfile host="app.diagrams.net" agent="Mozilla/5.0 (X11; Linux x86_64) AppleWebKit/537.36 (KHTML, like Gecko) Chrome/135.0.0.0 Safari/537.36" version="26.2.9">
  <diagram name="PÃ¡gina-1" id="J6djdbnICxuKfhNEPnPh">
    <mxGraphModel grid="1" page="1" gridSize="10" guides="1" tooltips="1" connect="1" arrows="1" fold="1" pageScale="1" pageWidth="827" pageHeight="1169" math="0" shadow="0">
      <root>
        <mxCell id="0" />
        <mxCell id="1" parent="0" />
        <mxCell id="CIAHZ45Va4bEthOu3rA1-2" value="User" style="shape=umlActor;verticalLabelPosition=bottom;verticalAlign=top;html=1;outlineConnect=0;" vertex="1" parent="1">
          <mxGeometry x="10" y="40" width="30" height="60" as="geometry" />
        </mxCell>
        <mxCell id="CIAHZ45Va4bEthOu3rA1-5" value="" style="endArrow=none;dashed=1;html=1;rounded=0;" edge="1" parent="1">
          <mxGeometry width="50" height="50" relative="1" as="geometry">
            <mxPoint x="24" y="610" as="sourcePoint" />
            <mxPoint x="24" y="130" as="targetPoint" />
          </mxGeometry>
        </mxCell>
        <mxCell id="CIAHZ45Va4bEthOu3rA1-6" value="" style="endArrow=none;dashed=1;html=1;rounded=0;entryX=0.574;entryY=1.039;entryDx=0;entryDy=0;entryPerimeter=0;exitX=0.5;exitY=1.017;exitDx=0;exitDy=0;exitPerimeter=0;" edge="1" parent="1" source="CIAHZ45Va4bEthOu3rA1-11">
          <mxGeometry width="50" height="50" relative="1" as="geometry">
            <mxPoint x="166" y="1100" as="sourcePoint" />
            <mxPoint x="165.92000000000007" y="112.73000000000002" as="targetPoint" />
          </mxGeometry>
        </mxCell>
        <mxCell id="CIAHZ45Va4bEthOu3rA1-7" value="Client&lt;div&gt;Process&lt;/div&gt;" style="ellipse;shape=umlControl;whiteSpace=wrap;html=1;" vertex="1" parent="1">
          <mxGeometry x="130" y="30" width="70" height="80" as="geometry" />
        </mxCell>
        <mxCell id="CIAHZ45Va4bEthOu3rA1-11" value="" style="rounded=0;whiteSpace=wrap;html=1;" vertex="1" parent="1">
          <mxGeometry x="160" y="140" width="10" height="460" as="geometry" />
        </mxCell>
        <mxCell id="aQ2tGEangODeAHBNtksF-1" value="MOM Broker" style="rounded=0;whiteSpace=wrap;html=1;" vertex="1" parent="1">
          <mxGeometry x="320" y="50" width="120" height="60" as="geometry" />
        </mxCell>
        <mxCell id="aQ2tGEangODeAHBNtksF-2" value="" style="endArrow=none;dashed=1;html=1;rounded=0;entryX=0.574;entryY=1.039;entryDx=0;entryDy=0;entryPerimeter=0;" edge="1" parent="1" source="aQ2tGEangODeAHBNtksF-12">
          <mxGeometry width="50" height="50" relative="1" as="geometry">
            <mxPoint x="379.58000000000004" y="1097.27" as="sourcePoint" />
            <mxPoint x="379.5000000000001" y="110.00000000000001" as="targetPoint" />
          </mxGeometry>
        </mxCell>
        <mxCell id="aQ2tGEangODeAHBNtksF-3" value="&amp;nbsp; &lt;b&gt;loop&lt;/b&gt; (read_batch() != 0)" style="shape=umlFrame;whiteSpace=wrap;html=1;pointerEvents=0;width=220;height=20;align=left;" vertex="1" parent="1">
          <mxGeometry x="140" y="160" width="280" height="340" as="geometry" />
        </mxCell>
        <mxCell id="aQ2tGEangODeAHBNtksF-6" value="" style="html=1;points=[[0,0,0,0,5],[0,1,0,0,-5],[1,0,0,0,5],[1,1,0,0,-5]];perimeter=orthogonalPerimeter;outlineConnect=0;targetShapes=umlLifeline;portConstraint=eastwest;newEdgeStyle={&quot;curved&quot;:0,&quot;rounded&quot;:0};" vertex="1" parent="1">
          <mxGeometry x="165" y="220" width="10" height="20" as="geometry" />
        </mxCell>
        <mxCell id="aQ2tGEangODeAHBNtksF-7" value="read&amp;nbsp;&lt;div&gt;batch&lt;/div&gt;" style="html=1;align=left;spacingLeft=2;endArrow=block;rounded=0;edgeStyle=orthogonalEdgeStyle;curved=0;rounded=0;" edge="1" parent="1" target="aQ2tGEangODeAHBNtksF-6">
          <mxGeometry relative="1" as="geometry">
            <mxPoint x="170" y="200" as="sourcePoint" />
            <Array as="points">
              <mxPoint x="200" y="230" />
            </Array>
          </mxGeometry>
        </mxCell>
        <mxCell id="aQ2tGEangODeAHBNtksF-8" value="send batch" style="html=1;verticalAlign=bottom;endArrow=block;curved=0;rounded=0;entryX=-0.114;entryY=0.036;entryDx=0;entryDy=0;entryPerimeter=0;" edge="1" parent="1" target="aQ2tGEangODeAHBNtksF-12">
          <mxGeometry width="80" relative="1" as="geometry">
            <mxPoint x="170" y="259.58000000000004" as="sourcePoint" />
            <mxPoint x="370" y="260" as="targetPoint" />
          </mxGeometry>
        </mxCell>
        <mxCell id="aQ2tGEangODeAHBNtksF-11" value="generate_report.sh" style="html=1;verticalAlign=bottom;endArrow=block;curved=0;rounded=0;entryX=-0.367;entryY=0.022;entryDx=0;entryDy=0;entryPerimeter=0;" edge="1" parent="1" target="CIAHZ45Va4bEthOu3rA1-11">
          <mxGeometry width="80" relative="1" as="geometry">
            <mxPoint x="30" y="150" as="sourcePoint" />
            <mxPoint x="110" y="150" as="targetPoint" />
          </mxGeometry>
        </mxCell>
        <mxCell id="aQ2tGEangODeAHBNtksF-13" value="" style="endArrow=none;dashed=1;html=1;rounded=0;entryX=0.5;entryY=1;entryDx=0;entryDy=0;" edge="1" parent="1" target="aQ2tGEangODeAHBNtksF-12">
          <mxGeometry width="50" height="50" relative="1" as="geometry">
            <mxPoint x="380" y="610" as="sourcePoint" />
            <mxPoint x="379.5000000000001" y="110.00000000000001" as="targetPoint" />
          </mxGeometry>
        </mxCell>
        <mxCell id="aQ2tGEangODeAHBNtksF-12" value="" style="rounded=0;whiteSpace=wrap;html=1;" vertex="1" parent="1">
          <mxGeometry x="375" y="250" width="10" height="290" as="geometry" />
        </mxCell>
        <mxCell id="aQ2tGEangODeAHBNtksF-14" value="Filter" style="ellipse;shape=umlControl;whiteSpace=wrap;html=1;" vertex="1" parent="1">
          <mxGeometry x="540" y="30" width="70" height="80" as="geometry" />
        </mxCell>
        <mxCell id="aQ2tGEangODeAHBNtksF-15" value="" style="ellipse;shape=umlControl;whiteSpace=wrap;html=1;" vertex="1" parent="1">
          <mxGeometry x="660" y="30" width="70" height="80" as="geometry" />
        </mxCell>
        <mxCell id="aQ2tGEangODeAHBNtksF-16" value="" style="ellipse;shape=umlControl;whiteSpace=wrap;html=1;" vertex="1" parent="1">
          <mxGeometry x="780" y="30" width="70" height="80" as="geometry" />
        </mxCell>
        <mxCell id="aQ2tGEangODeAHBNtksF-18" value="Filter" style="ellipse;shape=umlControl;whiteSpace=wrap;html=1;" vertex="1" parent="1">
          <mxGeometry x="550" y="40" width="70" height="80" as="geometry" />
        </mxCell>
        <mxCell id="aQ2tGEangODeAHBNtksF-20" value="Group By" style="ellipse;shape=umlControl;whiteSpace=wrap;html=1;" vertex="1" parent="1">
          <mxGeometry x="670" y="40" width="70" height="80" as="geometry" />
        </mxCell>
        <mxCell id="aQ2tGEangODeAHBNtksF-21" value="Aggregator" style="ellipse;shape=umlControl;whiteSpace=wrap;html=1;" vertex="1" parent="1">
          <mxGeometry x="790" y="40" width="70" height="80" as="geometry" />
        </mxCell>
        <mxCell id="aQ2tGEangODeAHBNtksF-22" value="" style="endArrow=none;dashed=1;html=1;rounded=0;entryX=0.574;entryY=1.039;entryDx=0;entryDy=0;entryPerimeter=0;" edge="1" parent="1" source="aQ2tGEangODeAHBNtksF-30">
          <mxGeometry width="50" height="50" relative="1" as="geometry">
            <mxPoint x="584.37" y="1110" as="sourcePoint" />
            <mxPoint x="584.2900000000001" y="122.73000000000002" as="targetPoint" />
          </mxGeometry>
        </mxCell>
        <mxCell id="aQ2tGEangODeAHBNtksF-23" value="" style="endArrow=none;dashed=1;html=1;rounded=0;entryX=0.574;entryY=1.039;entryDx=0;entryDy=0;entryPerimeter=0;" edge="1" parent="1" source="DUBLlkg7Osf7j0wROzMf-1">
          <mxGeometry width="50" height="50" relative="1" as="geometry">
            <mxPoint x="704.37" y="1107.27" as="sourcePoint" />
            <mxPoint x="704.2900000000001" y="120.00000000000001" as="targetPoint" />
          </mxGeometry>
        </mxCell>
        <mxCell id="aQ2tGEangODeAHBNtksF-24" value="" style="endArrow=none;dashed=1;html=1;rounded=0;entryX=0.574;entryY=1.039;entryDx=0;entryDy=0;entryPerimeter=0;" edge="1" parent="1" source="DUBLlkg7Osf7j0wROzMf-8">
          <mxGeometry width="50" height="50" relative="1" as="geometry">
            <mxPoint x="824.37" y="1107.27" as="sourcePoint" />
            <mxPoint x="824.2900000000001" y="120" as="targetPoint" />
          </mxGeometry>
        </mxCell>
        <mxCell id="aQ2tGEangODeAHBNtksF-26" value="filter_by(year &amp;gt;= 2000)" style="html=1;verticalAlign=bottom;endArrow=block;curved=0;rounded=0;entryX=0;entryY=0.25;entryDx=0;entryDy=0;entryPerimeter=0;" edge="1" parent="1" target="aQ2tGEangODeAHBNtksF-30">
          <mxGeometry width="80" relative="1" as="geometry">
            <mxPoint x="390" y="280" as="sourcePoint" />
            <mxPoint x="560" y="280" as="targetPoint" />
          </mxGeometry>
        </mxCell>
        <mxCell id="aQ2tGEangODeAHBNtksF-27" value="filtered_movies" style="html=1;verticalAlign=bottom;endArrow=open;dashed=1;endSize=8;curved=0;rounded=0;" edge="1" parent="1" source="aQ2tGEangODeAHBNtksF-30">
          <mxGeometry relative="1" as="geometry">
            <mxPoint x="560" y="300" as="sourcePoint" />
            <mxPoint x="385" y="300" as="targetPoint" />
          </mxGeometry>
        </mxCell>
        <mxCell id="aQ2tGEangODeAHBNtksF-31" value="" style="endArrow=none;dashed=1;html=1;rounded=0;entryX=0.574;entryY=1.039;entryDx=0;entryDy=0;entryPerimeter=0;" edge="1" parent="1" target="aQ2tGEangODeAHBNtksF-30">
          <mxGeometry width="50" height="50" relative="1" as="geometry">
            <mxPoint x="586" y="610" as="sourcePoint" />
            <mxPoint x="584.2900000000001" y="122.73000000000002" as="targetPoint" />
          </mxGeometry>
        </mxCell>
        <mxCell id="aQ2tGEangODeAHBNtksF-30" value="" style="html=1;points=[[0,0,0,0,5],[0,1,0,0,-5],[1,0,0,0,5],[1,1,0,0,-5]];perimeter=orthogonalPerimeter;outlineConnect=0;targetShapes=umlLifeline;portConstraint=eastwest;newEdgeStyle={&quot;curved&quot;:0,&quot;rounded&quot;:0};" vertex="1" parent="1">
          <mxGeometry x="580" y="270" width="10" height="40" as="geometry" />
        </mxCell>
        <mxCell id="DUBLlkg7Osf7j0wROzMf-4" value="" style="endArrow=none;dashed=1;html=1;rounded=0;entryX=0.574;entryY=1.039;entryDx=0;entryDy=0;entryPerimeter=0;" edge="1" parent="1" target="DUBLlkg7Osf7j0wROzMf-1">
          <mxGeometry width="50" height="50" relative="1" as="geometry">
            <mxPoint x="706" y="610" as="sourcePoint" />
            <mxPoint x="704.2900000000001" y="120.00000000000001" as="targetPoint" />
          </mxGeometry>
        </mxCell>
        <mxCell id="DUBLlkg7Osf7j0wROzMf-1" value="" style="html=1;points=[[0,0,0,0,5],[0,1,0,0,-5],[1,0,0,0,5],[1,1,0,0,-5]];perimeter=orthogonalPerimeter;outlineConnect=0;targetShapes=umlLifeline;portConstraint=eastwest;newEdgeStyle={&quot;curved&quot;:0,&quot;rounded&quot;:0};" vertex="1" parent="1">
          <mxGeometry x="700" y="330" width="10" height="40" as="geometry" />
        </mxCell>
        <mxCell id="DUBLlkg7Osf7j0wROzMf-5" value="group_by(filtered_movies, ratings)" style="html=1;verticalAlign=bottom;endArrow=block;curved=0;rounded=0;" edge="1" parent="1" target="DUBLlkg7Osf7j0wROzMf-1">
          <mxGeometry x="-0.2063" width="80" relative="1" as="geometry">
            <mxPoint x="385" y="339.65999999999997" as="sourcePoint" />
            <mxPoint x="465" y="339.65999999999997" as="targetPoint" />
            <mxPoint as="offset" />
          </mxGeometry>
        </mxCell>
        <mxCell id="DUBLlkg7Osf7j0wROzMf-6" value="movies_ratings" style="html=1;verticalAlign=bottom;endArrow=open;dashed=1;endSize=8;curved=0;rounded=0;entryX=1.256;entryY=0.378;entryDx=0;entryDy=0;entryPerimeter=0;" edge="1" parent="1" target="aQ2tGEangODeAHBNtksF-12">
          <mxGeometry x="0.2802" relative="1" as="geometry">
            <mxPoint x="700" y="360" as="sourcePoint" />
            <mxPoint x="620" y="360" as="targetPoint" />
            <mxPoint as="offset" />
          </mxGeometry>
        </mxCell>
        <mxCell id="DUBLlkg7Osf7j0wROzMf-10" value="" style="endArrow=none;dashed=1;html=1;rounded=0;entryX=0.574;entryY=1.039;entryDx=0;entryDy=0;entryPerimeter=0;" edge="1" parent="1" target="DUBLlkg7Osf7j0wROzMf-8">
          <mxGeometry width="50" height="50" relative="1" as="geometry">
            <mxPoint x="826" y="610" as="sourcePoint" />
            <mxPoint x="824.2900000000001" y="120" as="targetPoint" />
          </mxGeometry>
        </mxCell>
        <mxCell id="DUBLlkg7Osf7j0wROzMf-8" value="" style="html=1;points=[[0,0,0,0,5],[0,1,0,0,-5],[1,0,0,0,5],[1,1,0,0,-5]];perimeter=orthogonalPerimeter;outlineConnect=0;targetShapes=umlLifeline;portConstraint=eastwest;newEdgeStyle={&quot;curved&quot;:0,&quot;rounded&quot;:0};" vertex="1" parent="1">
          <mxGeometry x="820" y="390" width="10" height="40" as="geometry" />
        </mxCell>
        <mxCell id="DUBLlkg7Osf7j0wROzMf-11" value="get_max_min_avg(movies_ratings)" style="html=1;verticalAlign=bottom;endArrow=block;curved=0;rounded=0;" edge="1" parent="1" target="DUBLlkg7Osf7j0wROzMf-8">
          <mxGeometry x="-0.3793" width="80" relative="1" as="geometry">
            <mxPoint x="385" y="400" as="sourcePoint" />
            <mxPoint x="465" y="400" as="targetPoint" />
            <mxPoint as="offset" />
          </mxGeometry>
        </mxCell>
        <mxCell id="DUBLlkg7Osf7j0wROzMf-12" value="max_min_avg" style="html=1;verticalAlign=bottom;endArrow=open;dashed=1;endSize=8;curved=0;rounded=0;entryX=0.94;entryY=0.587;entryDx=0;entryDy=0;entryPerimeter=0;" edge="1" parent="1" target="aQ2tGEangODeAHBNtksF-12">
          <mxGeometry x="0.4233" relative="1" as="geometry">
            <mxPoint x="820" y="420" as="sourcePoint" />
            <mxPoint x="740" y="420" as="targetPoint" />
            <mxPoint as="offset" />
          </mxGeometry>
        </mxCell>
        <mxCell id="DUBLlkg7Osf7j0wROzMf-13" value="Report Generator" style="rounded=0;whiteSpace=wrap;html=1;" vertex="1" parent="1">
          <mxGeometry x="890" y="50" width="120" height="60" as="geometry" />
        </mxCell>
        <mxCell id="DUBLlkg7Osf7j0wROzMf-14" value="" style="endArrow=none;dashed=1;html=1;rounded=0;entryX=0.574;entryY=1.039;entryDx=0;entryDy=0;entryPerimeter=0;" edge="1" parent="1" source="DUBLlkg7Osf7j0wROzMf-17">
          <mxGeometry width="50" height="50" relative="1" as="geometry">
            <mxPoint x="950" y="600" as="sourcePoint" />
            <mxPoint x="951.63" y="110" as="targetPoint" />
          </mxGeometry>
        </mxCell>
        <mxCell id="DUBLlkg7Osf7j0wROzMf-18" value="" style="endArrow=none;dashed=1;html=1;rounded=0;entryX=0.574;entryY=1.039;entryDx=0;entryDy=0;entryPerimeter=0;" edge="1" parent="1" source="DUBLlkg7Osf7j0wROzMf-21" target="DUBLlkg7Osf7j0wROzMf-17">
          <mxGeometry width="50" height="50" relative="1" as="geometry">
            <mxPoint x="950" y="600" as="sourcePoint" />
            <mxPoint x="951.63" y="110" as="targetPoint" />
          </mxGeometry>
        </mxCell>
        <mxCell id="DUBLlkg7Osf7j0wROzMf-17" value="" style="html=1;points=[[0,0,0,0,5],[0,1,0,0,-5],[1,0,0,0,5],[1,1,0,0,-5]];perimeter=orthogonalPerimeter;outlineConnect=0;targetShapes=umlLifeline;portConstraint=eastwest;newEdgeStyle={&quot;curved&quot;:0,&quot;rounded&quot;:0};" vertex="1" parent="1">
          <mxGeometry x="945" y="450" width="10" height="40" as="geometry" />
        </mxCell>
        <mxCell id="DUBLlkg7Osf7j0wROzMf-19" value="store_partial_max_min(max, min)" style="html=1;verticalAlign=bottom;endArrow=block;curved=0;rounded=0;exitX=1.121;exitY=0.723;exitDx=0;exitDy=0;exitPerimeter=0;" edge="1" parent="1" source="aQ2tGEangODeAHBNtksF-12" target="DUBLlkg7Osf7j0wROzMf-17">
          <mxGeometry x="-0.5211" width="80" relative="1" as="geometry">
            <mxPoint x="390" y="460" as="sourcePoint" />
            <mxPoint x="470" y="460" as="targetPoint" />
            <mxPoint as="offset" />
          </mxGeometry>
        </mxCell>
        <mxCell id="DUBLlkg7Osf7j0wROzMf-20" value="return" style="html=1;verticalAlign=bottom;endArrow=open;dashed=1;endSize=8;curved=0;rounded=0;entryX=1.256;entryY=0.791;entryDx=0;entryDy=0;entryPerimeter=0;" edge="1" parent="1" target="aQ2tGEangODeAHBNtksF-12">
          <mxGeometry x="0.5205" y="1" relative="1" as="geometry">
            <mxPoint x="940" y="479" as="sourcePoint" />
            <mxPoint x="390" y="479" as="targetPoint" />
            <mxPoint as="offset" />
          </mxGeometry>
        </mxCell>
        <mxCell id="DUBLlkg7Osf7j0wROzMf-22" value="" style="endArrow=none;dashed=1;html=1;rounded=0;entryX=0.574;entryY=1.039;entryDx=0;entryDy=0;entryPerimeter=0;" edge="1" parent="1" target="DUBLlkg7Osf7j0wROzMf-21">
          <mxGeometry width="50" height="50" relative="1" as="geometry">
            <mxPoint x="950" y="600" as="sourcePoint" />
            <mxPoint x="951" y="492" as="targetPoint" />
          </mxGeometry>
        </mxCell>
        <mxCell id="DUBLlkg7Osf7j0wROzMf-21" value="" style="html=1;points=[[0,0,0,0,5],[0,1,0,0,-5],[1,0,0,0,5],[1,1,0,0,-5]];perimeter=orthogonalPerimeter;outlineConnect=0;targetShapes=umlLifeline;portConstraint=eastwest;newEdgeStyle={&quot;curved&quot;:0,&quot;rounded&quot;:0};" vertex="1" parent="1">
          <mxGeometry x="945" y="510" width="10" height="40" as="geometry" />
        </mxCell>
        <mxCell id="DUBLlkg7Osf7j0wROzMf-23" value="" style="html=1;points=[[0,0,0,0,5],[0,1,0,0,-5],[1,0,0,0,5],[1,1,0,0,-5]];perimeter=orthogonalPerimeter;outlineConnect=0;targetShapes=umlLifeline;portConstraint=eastwest;newEdgeStyle={&quot;curved&quot;:0,&quot;rounded&quot;:0};" vertex="1" parent="1">
          <mxGeometry x="375" y="500" width="10" height="100" as="geometry" />
        </mxCell>
        <mxCell id="DUBLlkg7Osf7j0wROzMf-24" value="get_final_result()" style="html=1;verticalAlign=bottom;endArrow=block;curved=0;rounded=0;exitX=1.121;exitY=0.723;exitDx=0;exitDy=0;exitPerimeter=0;" edge="1" parent="1">
          <mxGeometry x="0.0334" width="80" relative="1" as="geometry">
            <mxPoint x="385" y="520" as="sourcePoint" />
            <mxPoint x="940" y="520" as="targetPoint" />
            <mxPoint as="offset" />
          </mxGeometry>
        </mxCell>
        <mxCell id="DUBLlkg7Osf7j0wROzMf-25" value="report" style="html=1;verticalAlign=bottom;endArrow=open;dashed=1;endSize=8;curved=0;rounded=0;" edge="1" parent="1" target="DUBLlkg7Osf7j0wROzMf-23">
          <mxGeometry x="-0.04" relative="1" as="geometry">
            <mxPoint x="940" y="540" as="sourcePoint" />
            <mxPoint x="930" y="540" as="targetPoint" />
            <mxPoint as="offset" />
          </mxGeometry>
        </mxCell>
        <mxCell id="DUBLlkg7Osf7j0wROzMf-26" value="report" style="html=1;verticalAlign=bottom;endArrow=open;dashed=1;endSize=8;curved=0;rounded=0;entryX=1;entryY=0.913;entryDx=0;entryDy=0;entryPerimeter=0;" edge="1" parent="1" target="CIAHZ45Va4bEthOu3rA1-11">
          <mxGeometry relative="1" as="geometry">
            <mxPoint x="370" y="560" as="sourcePoint" />
            <mxPoint x="290" y="560" as="targetPoint" />
          </mxGeometry>
        </mxCell>
        <mxCell id="DUBLlkg7Osf7j0wROzMf-27" value="report" style="html=1;verticalAlign=bottom;endArrow=open;dashed=1;endSize=8;curved=0;rounded=0;" edge="1" parent="1">
          <mxGeometry relative="1" as="geometry">
            <mxPoint x="160" y="590" as="sourcePoint" />
            <mxPoint x="30" y="590" as="targetPoint" />
          </mxGeometry>
        </mxCell>
        <mxCell id="DUBLlkg7Osf7j0wROzMf-28" value="" style="html=1;points=[[0,0,0,0,5],[0,1,0,0,-5],[1,0,0,0,5],[1,1,0,0,-5]];perimeter=orthogonalPerimeter;outlineConnect=0;targetShapes=umlLifeline;portConstraint=eastwest;newEdgeStyle={&quot;curved&quot;:0,&quot;rounded&quot;:0};" vertex="1" parent="1">
          <mxGeometry x="950" y="460" width="10" height="20" as="geometry" />
        </mxCell>
        <mxCell id="DUBLlkg7Osf7j0wROzMf-29" value="store" style="html=1;align=left;spacingLeft=2;endArrow=block;rounded=0;edgeStyle=orthogonalEdgeStyle;curved=0;rounded=0;exitX=1;exitY=0;exitDx=0;exitDy=5;exitPerimeter=0;" edge="1" parent="1" source="DUBLlkg7Osf7j0wROzMf-17" target="DUBLlkg7Osf7j0wROzMf-28">
          <mxGeometry relative="1" as="geometry">
            <mxPoint x="955" y="440" as="sourcePoint" />
            <Array as="points">
              <mxPoint x="985" y="455" />
              <mxPoint x="985" y="470" />
            </Array>
          </mxGeometry>
        </mxCell>
      </root>
    </mxGraphModel>
  </diagram>
</mxfile>
